<svg width="1440" height="400" viewBox="0 0 1440 400" fill="none" xmlns="http://www.w3.org/2000/svg">
<mask id="mask0_8670_414504" style="mask-type:alpha" maskUnits="userSpaceOnUse" x="0" y="-61" width="1440" height="523">
<rect y="-61" width="1440" height="522.24" fill="#E3F2FF"/>
</mask>
<g mask="url(#mask0_8670_414504)">
<rect y="-99.4004" width="1440" height="591.781" fill="url(#paint0_linear_8670_414504)"/>
<g filter="url(#filter0_f_8670_414504)">
<circle cx="64.726" cy="347.518" r="210.205" fill="#E0F7FC"/>
</g>
<circle opacity="0.5" cx="263.835" cy="480.052" r="283.562" fill="url(#paint1_linear_8670_414504)"/>
<g filter="url(#filter1_f_8670_414504)">
<circle cx="1508.42" cy="324.094" r="282.945" fill="#E0F8EE"/>
</g>
<path d="M1354.52 -145.78C1377.06 -23.7784 1362.24 239.848 1122.63 318.34C823.107 416.456 755.368 650.218 742.017 746" stroke="url(#paint2_linear_8670_414504)" stroke-width="2.46575" stroke-linecap="round" stroke-linejoin="round" stroke-dasharray="2.47 14.79"/>
<path d="M1341.93 -145.776C1364.47 -23.7745 1349.65 239.852 1110.03 318.344C810.516 416.46 742.778 650.222 729.426 746.005" stroke="url(#paint3_linear_8670_414504)" stroke-width="2.46575" stroke-linecap="round" stroke-linejoin="round" stroke-dasharray="2.47 14.79"/>
<path d="M1329.33 -145.776C1351.87 -23.7745 1337.06 239.852 1097.44 318.344C797.921 416.46 730.183 650.222 716.831 746.004" stroke="url(#paint4_linear_8670_414504)" stroke-width="2.46575" stroke-linecap="round" stroke-linejoin="round" stroke-dasharray="2.47 14.79"/>
<path d="M1316.74 -145.772C1339.28 -23.7706 1324.47 239.856 1084.85 318.348C785.332 416.464 717.594 650.226 704.242 746.008" stroke="url(#paint5_linear_8670_414504)" stroke-width="2.46575" stroke-linecap="round" stroke-linejoin="round" stroke-dasharray="2.47 14.79"/>
<path d="M1304.15 -145.768C1326.69 -23.7666 1311.88 239.86 1072.26 318.352C772.742 416.468 705.004 650.23 691.652 746.012" stroke="url(#paint6_linear_8670_414504)" stroke-width="2.46575" stroke-linecap="round" stroke-linejoin="round" stroke-dasharray="2.47 14.79"/>
<path d="M1291.56 -145.77C1314.1 -23.7686 1299.28 239.858 1059.67 318.35C760.148 416.466 692.409 650.228 679.058 746.01" stroke="url(#paint7_linear_8670_414504)" stroke-width="2.46575" stroke-linecap="round" stroke-linejoin="round" stroke-dasharray="2.47 14.79"/>
<path d="M1278.96 -145.766C1301.51 -23.7647 1286.69 239.861 1047.07 318.354C747.555 416.47 679.817 650.232 666.465 746.014" stroke="url(#paint8_linear_8670_414504)" stroke-width="2.46575" stroke-linecap="round" stroke-linejoin="round" stroke-dasharray="2.47 14.79"/>
<path d="M1266.38 -145.764C1288.92 -23.7627 1274.1 239.863 1034.49 318.356C734.966 416.472 667.228 650.234 653.876 746.016" stroke="url(#paint9_linear_8670_414504)" stroke-width="2.46575" stroke-linecap="round" stroke-linejoin="round" stroke-dasharray="2.47 14.79"/>
<path d="M1253.78 -145.762C1276.32 -23.7608 1261.51 239.865 1021.89 318.358C722.372 416.474 654.634 650.235 641.282 746.018" stroke="url(#paint10_linear_8670_414504)" stroke-width="2.46575" stroke-linecap="round" stroke-linejoin="round" stroke-dasharray="2.47 14.79"/>
<path d="M1241.19 -145.758C1263.73 -23.7569 1248.92 239.869 1009.3 318.362C709.781 416.478 642.043 650.239 628.691 746.022" stroke="url(#paint11_linear_8670_414504)" stroke-width="2.46575" stroke-linecap="round" stroke-linejoin="round" stroke-dasharray="2.47 14.79"/>
<path d="M1228.6 -145.756C1251.14 -23.7549 1236.32 239.871 996.708 318.364C697.189 416.48 629.451 650.242 616.099 746.024" stroke="url(#paint12_linear_8670_414504)" stroke-width="2.46575" stroke-linecap="round" stroke-linejoin="round" stroke-dasharray="2.47 14.79"/>
<path d="M1216.01 -145.754C1238.55 -23.753 1223.73 239.873 984.117 318.366C684.598 416.482 616.86 650.243 603.508 746.026" stroke="url(#paint13_linear_8670_414504)" stroke-width="2.46575" stroke-linecap="round" stroke-linejoin="round" stroke-dasharray="2.47 14.79"/>
<path d="M1203.42 -145.751C1225.96 -23.7491 1211.14 239.877 971.527 318.37C672.008 416.486 604.27 650.247 590.918 746.03" stroke="url(#paint14_linear_8670_414504)" stroke-width="2.46575" stroke-linecap="round" stroke-linejoin="round" stroke-dasharray="2.47 14.79"/>
<path d="M1190.82 -145.749C1213.37 -23.7471 1198.55 239.879 958.934 318.372C659.415 416.488 591.677 650.249 578.325 746.032" stroke="url(#paint15_linear_8670_414504)" stroke-width="2.46575" stroke-linecap="round" stroke-linejoin="round" stroke-dasharray="2.47 14.79"/>
<path d="M1178.23 -145.747C1200.78 -23.7452 1185.96 239.881 946.343 318.374C646.825 416.49 579.086 650.251 565.735 746.034" stroke="url(#paint16_linear_8670_414504)" stroke-width="2.46575" stroke-linecap="round" stroke-linejoin="round" stroke-dasharray="2.47 14.79"/>
<path d="M1165.64 -145.745C1188.19 -23.7432 1173.37 239.883 933.753 318.376C634.234 416.491 566.496 650.253 553.144 746.036" stroke="url(#paint17_linear_8670_414504)" stroke-width="2.46575" stroke-linecap="round" stroke-linejoin="round" stroke-dasharray="2.47 14.79"/>
<path d="M1153.05 -145.741C1175.59 -23.7393 1160.77 239.887 921.158 318.38C621.64 416.495 553.901 650.257 540.55 746.04" stroke="url(#paint18_linear_8670_414504)" stroke-width="2.46575" stroke-linecap="round" stroke-linejoin="round" stroke-dasharray="2.47 14.79"/>
<path d="M1140.46 -145.739C1163 -23.7374 1148.18 239.889 908.568 318.381C609.049 416.497 541.311 650.259 527.959 746.041" stroke="url(#paint19_linear_8670_414504)" stroke-width="2.46575" stroke-linecap="round" stroke-linejoin="round" stroke-dasharray="2.47 14.79"/>
<path d="M1127.87 -145.737C1150.41 -23.7354 1135.59 239.891 895.977 318.383C596.459 416.499 528.72 650.261 515.369 746.043" stroke="url(#paint20_linear_8670_414504)" stroke-width="2.46575" stroke-linecap="round" stroke-linejoin="round" stroke-dasharray="2.47 14.79"/>
<path d="M1115.28 -145.733C1137.82 -23.7315 1123 239.895 883.384 318.387C583.866 416.503 516.127 650.265 502.776 746.047" stroke="url(#paint21_linear_8670_414504)" stroke-width="2.46575" stroke-linecap="round" stroke-linejoin="round" stroke-dasharray="2.47 14.79"/>
<path d="M1102.69 -145.733C1125.23 -23.7315 1110.41 239.895 870.794 318.387C571.275 416.503 503.537 650.265 490.186 746.047" stroke="url(#paint22_linear_8670_414504)" stroke-width="2.46575" stroke-linecap="round" stroke-linejoin="round" stroke-dasharray="2.47 14.79"/>
<path d="M1090.09 -145.733C1112.64 -23.7315 1097.82 239.895 858.203 318.387C558.685 416.503 490.946 650.265 477.595 746.047" stroke="url(#paint23_linear_8670_414504)" stroke-width="2.46575" stroke-linecap="round" stroke-linejoin="round" stroke-dasharray="2.47 14.79"/>
<path d="M1077.5 -145.729C1100.04 -23.7276 1085.22 239.898 845.609 318.391C546.09 416.507 478.352 650.269 465 746.051" stroke="url(#paint24_linear_8670_414504)" stroke-width="2.46575" stroke-linecap="round" stroke-linejoin="round" stroke-dasharray="2.47 14.79"/>
<g filter="url(#filter2_f_8670_414504)">
<circle cx="835.273" cy="-100.016" r="192.945" fill="#F5EDFF"/>
</g>
</g>
<defs>
<filter id="filter0_f_8670_414504" x="-392.055" y="-109.263" width="913.562" height="913.561" filterUnits="userSpaceOnUse" color-interpolation-filters="sRGB">
<feFlood flood-opacity="0" result="BackgroundImageFix"/>
<feBlend mode="normal" in="SourceGraphic" in2="BackgroundImageFix" result="shape"/>
<feGaussianBlur stdDeviation="123.288" result="effect1_foregroundBlur_8670_414504"/>
</filter>
<filter id="filter1_f_8670_414504" x="978.904" y="-205.427" width="1059.04" height="1059.04" filterUnits="userSpaceOnUse" color-interpolation-filters="sRGB">
<feFlood flood-opacity="0" result="BackgroundImageFix"/>
<feBlend mode="normal" in="SourceGraphic" in2="BackgroundImageFix" result="shape"/>
<feGaussianBlur stdDeviation="123.288" result="effect1_foregroundBlur_8670_414504"/>
</filter>
<filter id="filter2_f_8670_414504" x="395.753" y="-539.536" width="879.041" height="879.041" filterUnits="userSpaceOnUse" color-interpolation-filters="sRGB">
<feFlood flood-opacity="0" result="BackgroundImageFix"/>
<feBlend mode="normal" in="SourceGraphic" in2="BackgroundImageFix" result="shape"/>
<feGaussianBlur stdDeviation="123.288" result="effect1_foregroundBlur_8670_414504"/>
</filter>
<linearGradient id="paint0_linear_8670_414504" x1="1440" y1="492.38" x2="403.928" y2="-503.318" gradientUnits="userSpaceOnUse">
<stop stop-color="#E3F2FF"/>
<stop offset="1" stop-color="#BCDEFF"/>
</linearGradient>
<linearGradient id="paint1_linear_8670_414504" x1="69.0401" y1="295.12" x2="369.246" y2="480.052" gradientUnits="userSpaceOnUse">
<stop stop-color="white"/>
<stop offset="1" stop-color="white" stop-opacity="0"/>
</linearGradient>
<linearGradient id="paint2_linear_8670_414504" x1="1052.13" y1="-145.724" x2="1052.29" y2="745.943" gradientUnits="userSpaceOnUse">
<stop stop-color="white" stop-opacity="0"/>
<stop offset="0.197917" stop-color="white"/>
<stop offset="0.580023" stop-color="white"/>
<stop offset="0.720196" stop-color="white" stop-opacity="0"/>
</linearGradient>
<linearGradient id="paint3_linear_8670_414504" x1="1039.54" y1="-145.72" x2="1039.7" y2="745.947" gradientUnits="userSpaceOnUse">
<stop stop-color="white" stop-opacity="0"/>
<stop offset="0.197917" stop-color="white"/>
<stop offset="0.580023" stop-color="white"/>
<stop offset="0.720196" stop-color="white" stop-opacity="0"/>
</linearGradient>
<linearGradient id="paint4_linear_8670_414504" x1="1026.94" y1="-145.72" x2="1027.11" y2="745.947" gradientUnits="userSpaceOnUse">
<stop stop-color="white" stop-opacity="0"/>
<stop offset="0.197917" stop-color="white"/>
<stop offset="0.580023" stop-color="white"/>
<stop offset="0.720196" stop-color="white" stop-opacity="0"/>
</linearGradient>
<linearGradient id="paint5_linear_8670_414504" x1="1014.35" y1="-145.716" x2="1014.52" y2="745.951" gradientUnits="userSpaceOnUse">
<stop stop-color="white" stop-opacity="0"/>
<stop offset="0.197917" stop-color="white"/>
<stop offset="0.580023" stop-color="white"/>
<stop offset="0.720196" stop-color="white" stop-opacity="0"/>
</linearGradient>
<linearGradient id="paint6_linear_8670_414504" x1="1001.76" y1="-145.712" x2="1001.93" y2="745.955" gradientUnits="userSpaceOnUse">
<stop stop-color="white" stop-opacity="0"/>
<stop offset="0.197917" stop-color="white"/>
<stop offset="0.580023" stop-color="white"/>
<stop offset="0.720196" stop-color="white" stop-opacity="0"/>
</linearGradient>
<linearGradient id="paint7_linear_8670_414504" x1="989.169" y1="-145.714" x2="989.334" y2="745.953" gradientUnits="userSpaceOnUse">
<stop stop-color="white" stop-opacity="0"/>
<stop offset="0.197917" stop-color="white"/>
<stop offset="0.580023" stop-color="white"/>
<stop offset="0.720196" stop-color="white" stop-opacity="0"/>
</linearGradient>
<linearGradient id="paint8_linear_8670_414504" x1="976.577" y1="-145.71" x2="976.741" y2="745.957" gradientUnits="userSpaceOnUse">
<stop stop-color="white" stop-opacity="0"/>
<stop offset="0.197917" stop-color="white"/>
<stop offset="0.580023" stop-color="white"/>
<stop offset="0.720196" stop-color="white" stop-opacity="0"/>
</linearGradient>
<linearGradient id="paint9_linear_8670_414504" x1="963.988" y1="-145.708" x2="964.152" y2="745.959" gradientUnits="userSpaceOnUse">
<stop stop-color="white" stop-opacity="0"/>
<stop offset="0.197917" stop-color="white"/>
<stop offset="0.580023" stop-color="white"/>
<stop offset="0.720196" stop-color="white" stop-opacity="0"/>
</linearGradient>
<linearGradient id="paint10_linear_8670_414504" x1="951.394" y1="-145.706" x2="951.558" y2="745.961" gradientUnits="userSpaceOnUse">
<stop stop-color="white" stop-opacity="0"/>
<stop offset="0.197917" stop-color="white"/>
<stop offset="0.580023" stop-color="white"/>
<stop offset="0.720196" stop-color="white" stop-opacity="0"/>
</linearGradient>
<linearGradient id="paint11_linear_8670_414504" x1="938.803" y1="-145.703" x2="938.967" y2="745.965" gradientUnits="userSpaceOnUse">
<stop stop-color="white" stop-opacity="0"/>
<stop offset="0.197917" stop-color="white"/>
<stop offset="0.580023" stop-color="white"/>
<stop offset="0.720196" stop-color="white" stop-opacity="0"/>
</linearGradient>
<linearGradient id="paint12_linear_8670_414504" x1="926.211" y1="-145.701" x2="926.375" y2="745.967" gradientUnits="userSpaceOnUse">
<stop stop-color="white" stop-opacity="0"/>
<stop offset="0.197917" stop-color="white"/>
<stop offset="0.580023" stop-color="white"/>
<stop offset="0.720196" stop-color="white" stop-opacity="0"/>
</linearGradient>
<linearGradient id="paint13_linear_8670_414504" x1="913.62" y1="-145.699" x2="913.784" y2="745.969" gradientUnits="userSpaceOnUse">
<stop stop-color="white" stop-opacity="0"/>
<stop offset="0.197917" stop-color="white"/>
<stop offset="0.580023" stop-color="white"/>
<stop offset="0.720196" stop-color="white" stop-opacity="0"/>
</linearGradient>
<linearGradient id="paint14_linear_8670_414504" x1="901.03" y1="-145.695" x2="901.194" y2="745.972" gradientUnits="userSpaceOnUse">
<stop stop-color="white" stop-opacity="0"/>
<stop offset="0.197917" stop-color="white"/>
<stop offset="0.580023" stop-color="white"/>
<stop offset="0.720196" stop-color="white" stop-opacity="0"/>
</linearGradient>
<linearGradient id="paint15_linear_8670_414504" x1="888.437" y1="-145.693" x2="888.601" y2="745.975" gradientUnits="userSpaceOnUse">
<stop stop-color="white" stop-opacity="0"/>
<stop offset="0.197917" stop-color="white"/>
<stop offset="0.580023" stop-color="white"/>
<stop offset="0.720196" stop-color="white" stop-opacity="0"/>
</linearGradient>
<linearGradient id="paint16_linear_8670_414504" x1="875.846" y1="-145.691" x2="876.011" y2="745.977" gradientUnits="userSpaceOnUse">
<stop stop-color="white" stop-opacity="0"/>
<stop offset="0.197917" stop-color="white"/>
<stop offset="0.580023" stop-color="white"/>
<stop offset="0.720196" stop-color="white" stop-opacity="0"/>
</linearGradient>
<linearGradient id="paint17_linear_8670_414504" x1="863.256" y1="-145.689" x2="863.42" y2="745.978" gradientUnits="userSpaceOnUse">
<stop stop-color="white" stop-opacity="0"/>
<stop offset="0.197917" stop-color="white"/>
<stop offset="0.580023" stop-color="white"/>
<stop offset="0.720196" stop-color="white" stop-opacity="0"/>
</linearGradient>
<linearGradient id="paint18_linear_8670_414504" x1="850.661" y1="-145.685" x2="850.826" y2="745.982" gradientUnits="userSpaceOnUse">
<stop stop-color="white" stop-opacity="0"/>
<stop offset="0.197917" stop-color="white"/>
<stop offset="0.580023" stop-color="white"/>
<stop offset="0.720196" stop-color="white" stop-opacity="0"/>
</linearGradient>
<linearGradient id="paint19_linear_8670_414504" x1="838.07" y1="-145.683" x2="838.235" y2="745.984" gradientUnits="userSpaceOnUse">
<stop stop-color="white" stop-opacity="0"/>
<stop offset="0.197917" stop-color="white"/>
<stop offset="0.580023" stop-color="white"/>
<stop offset="0.720196" stop-color="white" stop-opacity="0"/>
</linearGradient>
<linearGradient id="paint20_linear_8670_414504" x1="825.48" y1="-145.681" x2="825.645" y2="745.986" gradientUnits="userSpaceOnUse">
<stop stop-color="white" stop-opacity="0"/>
<stop offset="0.197917" stop-color="white"/>
<stop offset="0.580023" stop-color="white"/>
<stop offset="0.720196" stop-color="white" stop-opacity="0"/>
</linearGradient>
<linearGradient id="paint21_linear_8670_414504" x1="812.887" y1="-145.677" x2="813.052" y2="745.99" gradientUnits="userSpaceOnUse">
<stop stop-color="white" stop-opacity="0"/>
<stop offset="0.197917" stop-color="white"/>
<stop offset="0.580023" stop-color="white"/>
<stop offset="0.720196" stop-color="white" stop-opacity="0"/>
</linearGradient>
<linearGradient id="paint22_linear_8670_414504" x1="800.297" y1="-145.677" x2="800.461" y2="745.99" gradientUnits="userSpaceOnUse">
<stop stop-color="white" stop-opacity="0"/>
<stop offset="0.197917" stop-color="white"/>
<stop offset="0.580023" stop-color="white"/>
<stop offset="0.720196" stop-color="white" stop-opacity="0"/>
</linearGradient>
<linearGradient id="paint23_linear_8670_414504" x1="787.706" y1="-145.677" x2="787.871" y2="745.99" gradientUnits="userSpaceOnUse">
<stop stop-color="white" stop-opacity="0"/>
<stop offset="0.197917" stop-color="white"/>
<stop offset="0.580023" stop-color="white"/>
<stop offset="0.720196" stop-color="white" stop-opacity="0"/>
</linearGradient>
<linearGradient id="paint24_linear_8670_414504" x1="775.112" y1="-145.673" x2="775.276" y2="745.994" gradientUnits="userSpaceOnUse">
<stop stop-color="white" stop-opacity="0"/>
<stop offset="0.197917" stop-color="white"/>
<stop offset="0.580023" stop-color="white"/>
<stop offset="0.720196" stop-color="white" stop-opacity="0"/>
</linearGradient>
</defs>
</svg>
