<svg width="375" height="250" viewBox="0 0 375 250" fill="none" xmlns="http://www.w3.org/2000/svg">
<path d="M375 0H0V250L375 212.886V0Z" fill="#E3F2FF"/>
<mask id="mask0" mask-type="alpha" maskUnits="userSpaceOnUse" x="0" y="0" width="375" height="250">
<rect width="375" height="250" fill="#262626"/>
</mask>
<g mask="url(#mask0)">
<path opacity="0.2" d="M178.43 -43.5587C178.119 -56.0253 168.311 -66.1762 155.863 -66.9168L41.4252 -73.7243C27.6343 -74.5447 16 -63.5819 16 -49.7667V6.05426C16 20.0416 27.9132 31.0654 41.8586 29.9822L157.297 21.0158C170.024 20.0272 179.75 9.24938 179.431 -3.51175L178.43 -43.5587Z" fill="white"/>
<path opacity="0.2" d="M331.597 160.928C319.57 162.501 308.654 172.771 306.127 184.891L295.076 237.892C292.085 252.238 301.915 263.331 316.134 261.656L386.643 253.353C401.186 251.64 413.619 237.389 412.933 223.221L410.405 171.075C409.841 159.437 400.489 151.914 388.528 153.479L331.597 160.928Z" fill="white"/>
<path opacity="0.2" d="M-125.277 148.871C-128.997 137.051 -122.572 126.278 -110.482 124.066L9.98763 102.018C23.4292 99.5579 38.5675 108.56 43.0305 121.666L64.9584 186.063C69.4799 199.342 61.1442 211.211 46.8936 211.787L-80.5572 216.932C-93.4742 217.454 -106.532 208.433 -110.33 196.365L-125.277 148.871Z" fill="white"/>
</g>
</svg>
